<mxfile host="Electron" modified="2024-02-09T13:54:32.702Z" agent="Mozilla/5.0 (Windows NT 10.0; Win64; x64) AppleWebKit/537.36 (KHTML, like Gecko) draw.io/22.1.16 Chrome/120.0.6099.109 Electron/28.1.0 Safari/537.36" etag="6yQqLA7WzmMfYjiizBmn" version="22.1.16" type="device">
  <diagram name="PÃ¡gina-1" id="O7MBfEGZBoNdr1yW5oVu">
    <mxGraphModel dx="1260" dy="863" grid="1" gridSize="10" guides="1" tooltips="1" connect="1" arrows="1" fold="1" page="1" pageScale="1" pageWidth="827" pageHeight="1169" math="0" shadow="0">
      <root>
        <mxCell id="0" />
        <mxCell id="1" parent="0" />
        <mxCell id="tNCyVdp1Aul9Red6iAFf-1" value="" style="group;fillColor=#232136;strokeColor=#232136;strokeWidth=25;" parent="1" vertex="1" connectable="0">
          <mxGeometry x="30" y="130" width="770" height="340" as="geometry" />
        </mxCell>
        <mxCell id="weasKUzhQbfyZyFGf2sW-2" value="&lt;font style=&quot;font-size: 16px;&quot;&gt;Start&lt;/font&gt;" style="ellipse;whiteSpace=wrap;html=1;aspect=fixed;strokeColor=#DB918D;fontColor=#FFFFFF;fillColor=none;strokeWidth=3;fontSize=12;" parent="tNCyVdp1Aul9Red6iAFf-1" vertex="1">
          <mxGeometry x="-10.547945205479452" y="77.0516965022411" width="56.61764705882352" height="56.61764705882352" as="geometry" />
        </mxCell>
        <mxCell id="weasKUzhQbfyZyFGf2sW-8" value="&lt;font style=&quot;font-size: 16px;&quot;&gt;End&lt;/font&gt;" style="ellipse;whiteSpace=wrap;html=1;aspect=fixed;strokeColor=#DB918D;fontColor=#FFFFFF;fillColor=none;strokeWidth=3;fontSize=12;" parent="tNCyVdp1Aul9Red6iAFf-1" vertex="1">
          <mxGeometry x="79.49598509266721" y="109.18685769488307" width="56.61764705882352" height="56.61764705882352" as="geometry" />
        </mxCell>
        <mxCell id="weasKUzhQbfyZyFGf2sW-1" value="&lt;font style=&quot;font-size: 16px;&quot;&gt;Execute problem identification process&lt;/font&gt;" style="rounded=1;whiteSpace=wrap;html=1;strokeColor=#DB918D;fontColor=#FFFFFF;fillColor=none;strokeWidth=3;fontSize=12;" parent="tNCyVdp1Aul9Red6iAFf-1" vertex="1">
          <mxGeometry x="229.8676470588235" y="15.478310132729037" width="181.17647058823528" height="55.03399158303658" as="geometry" />
        </mxCell>
        <mxCell id="weasKUzhQbfyZyFGf2sW-5" value="&lt;font style=&quot;font-size: 16px;&quot;&gt;Application &lt;br style=&quot;&quot;&gt;Status?&lt;/font&gt;" style="rhombus;whiteSpace=wrap;html=1;rounded=0;strokeColor=#DB918D;strokeWidth=3;align=center;verticalAlign=middle;fontFamily=Helvetica;fontSize=12;fontColor=#FFFFFF;fillColor=none;spacingTop=2;" parent="tNCyVdp1Aul9Red6iAFf-1" vertex="1">
          <mxGeometry x="46.069701853344085" width="123.46044117647058" height="85.99061184849467" as="geometry" />
        </mxCell>
        <mxCell id="weasKUzhQbfyZyFGf2sW-6" style="edgeStyle=orthogonalEdgeStyle;shape=connector;curved=0;rounded=1;orthogonalLoop=1;jettySize=auto;html=1;labelBackgroundColor=default;strokeColor=#DB918D;strokeWidth=3;align=center;verticalAlign=middle;fontFamily=Helvetica;fontSize=12;fontColor=#FFFFFF;endArrow=openThin;endFill=0;fillColor=#FAE5C7;entryX=0;entryY=0.5;entryDx=0;entryDy=0;exitX=0.5;exitY=0;exitDx=0;exitDy=0;" parent="tNCyVdp1Aul9Red6iAFf-1" source="weasKUzhQbfyZyFGf2sW-2" target="weasKUzhQbfyZyFGf2sW-5" edge="1">
          <mxGeometry relative="1" as="geometry" />
        </mxCell>
        <mxCell id="weasKUzhQbfyZyFGf2sW-9" style="edgeStyle=orthogonalEdgeStyle;shape=connector;curved=0;rounded=1;orthogonalLoop=1;jettySize=auto;html=1;labelBackgroundColor=default;strokeColor=#DB918D;strokeWidth=3;align=center;verticalAlign=middle;fontFamily=Helvetica;fontSize=12;fontColor=#FFFFFF;endArrow=openThin;endFill=0;fillColor=#FAE5C7;" parent="tNCyVdp1Aul9Red6iAFf-1" source="weasKUzhQbfyZyFGf2sW-5" target="weasKUzhQbfyZyFGf2sW-8" edge="1">
          <mxGeometry relative="1" as="geometry" />
        </mxCell>
        <mxCell id="weasKUzhQbfyZyFGf2sW-7" style="edgeStyle=orthogonalEdgeStyle;shape=connector;curved=0;rounded=1;orthogonalLoop=1;jettySize=auto;html=1;labelBackgroundColor=default;strokeColor=#DB918D;strokeWidth=3;align=center;verticalAlign=middle;fontFamily=Helvetica;fontSize=12;fontColor=#FFFFFF;endArrow=openThin;endFill=0;fillColor=#FAE5C7;" parent="tNCyVdp1Aul9Red6iAFf-1" source="weasKUzhQbfyZyFGf2sW-5" target="weasKUzhQbfyZyFGf2sW-1" edge="1">
          <mxGeometry relative="1" as="geometry" />
        </mxCell>
        <mxCell id="weasKUzhQbfyZyFGf2sW-11" value="&lt;font style=&quot;font-size: 14px;&quot;&gt;Coherent&lt;/font&gt;" style="text;html=1;strokeColor=none;fillColor=none;align=center;verticalAlign=middle;whiteSpace=wrap;rounded=0;fontSize=12;fontFamily=Helvetica;fontColor=#FFFFFF;" parent="tNCyVdp1Aul9Red6iAFf-1" vertex="1">
          <mxGeometry x="134.4669117647059" y="77.04758821625121" width="41.04779411764706" height="27.51699579151829" as="geometry" />
        </mxCell>
        <mxCell id="weasKUzhQbfyZyFGf2sW-13" value="&lt;font style=&quot;font-size: 14px;&quot;&gt;Not &lt;br style=&quot;&quot;&gt;coherent&lt;/font&gt;" style="text;html=1;strokeColor=none;fillColor=none;align=left;verticalAlign=middle;whiteSpace=wrap;rounded=0;fontSize=12;fontFamily=Helvetica;fontColor=#FFFFFF;" parent="tNCyVdp1Aul9Red6iAFf-1" vertex="1">
          <mxGeometry x="161.69255439161972" y="2.751699579151829" width="83.69220588235294" height="27.51699579151829" as="geometry" />
        </mxCell>
        <mxCell id="weasKUzhQbfyZyFGf2sW-15" value="&lt;font style=&quot;font-size: 16px;&quot;&gt;Get actions to take with the location and data requirement info&lt;/font&gt;" style="rounded=1;whiteSpace=wrap;html=1;strokeColor=#DB918D;fontColor=#FFFFFF;fillColor=none;strokeWidth=3;fontSize=12;" parent="tNCyVdp1Aul9Red6iAFf-1" vertex="1">
          <mxGeometry x="229.8676470588235" y="101.81288442861768" width="181.17647058823528" height="68.79248947879573" as="geometry" />
        </mxCell>
        <mxCell id="weasKUzhQbfyZyFGf2sW-16" style="edgeStyle=orthogonalEdgeStyle;shape=connector;curved=0;rounded=1;orthogonalLoop=1;jettySize=auto;html=1;exitX=0.5;exitY=1;exitDx=0;exitDy=0;labelBackgroundColor=default;strokeColor=#DB918D;strokeWidth=3;align=center;verticalAlign=middle;fontFamily=Helvetica;fontSize=12;fontColor=#FFFFFF;endArrow=openThin;endFill=0;fillColor=#FAE5C7;" parent="tNCyVdp1Aul9Red6iAFf-1" source="weasKUzhQbfyZyFGf2sW-1" target="weasKUzhQbfyZyFGf2sW-15" edge="1">
          <mxGeometry relative="1" as="geometry" />
        </mxCell>
        <mxCell id="Puos1YkfTBZv_9QDnM-f-1" style="edgeStyle=orthogonalEdgeStyle;shape=connector;curved=0;rounded=1;orthogonalLoop=1;jettySize=auto;html=1;exitX=0;exitY=0.5;exitDx=0;exitDy=0;entryX=0.5;entryY=1;entryDx=0;entryDy=0;labelBackgroundColor=default;strokeColor=#DB918D;strokeWidth=3;align=center;verticalAlign=middle;fontFamily=Helvetica;fontSize=12;fontColor=#FFFFFF;endArrow=openThin;endFill=0;fillColor=#FAE5C7;" parent="tNCyVdp1Aul9Red6iAFf-1" source="weasKUzhQbfyZyFGf2sW-17" target="weasKUzhQbfyZyFGf2sW-8" edge="1">
          <mxGeometry relative="1" as="geometry" />
        </mxCell>
        <mxCell id="weasKUzhQbfyZyFGf2sW-17" value="&lt;font style=&quot;font-size: 16px;&quot;&gt;Actions left to execute?&lt;/font&gt;" style="rhombus;whiteSpace=wrap;html=1;rounded=0;strokeColor=#DB918D;strokeWidth=3;align=center;verticalAlign=middle;fontFamily=Helvetica;fontSize=12;fontColor=#FFFFFF;fillColor=none;spacingTop=7;" parent="tNCyVdp1Aul9Red6iAFf-1" vertex="1">
          <mxGeometry x="245.38739726027396" y="208.4491114701131" width="150.13945205479453" height="85.99555735056543" as="geometry" />
        </mxCell>
        <mxCell id="weasKUzhQbfyZyFGf2sW-18" style="edgeStyle=orthogonalEdgeStyle;shape=connector;curved=0;rounded=1;orthogonalLoop=1;jettySize=auto;html=1;labelBackgroundColor=default;strokeColor=#DB918D;strokeWidth=3;align=center;verticalAlign=middle;fontFamily=Helvetica;fontSize=12;fontColor=#FFFFFF;endArrow=openThin;endFill=0;fillColor=#FAE5C7;" parent="tNCyVdp1Aul9Red6iAFf-1" source="weasKUzhQbfyZyFGf2sW-15" target="weasKUzhQbfyZyFGf2sW-17" edge="1">
          <mxGeometry relative="1" as="geometry" />
        </mxCell>
        <mxCell id="weasKUzhQbfyZyFGf2sW-19" value="&lt;font style=&quot;font-size: 14px;&quot;&gt;No&lt;/font&gt;" style="text;html=1;strokeColor=none;fillColor=none;align=center;verticalAlign=middle;whiteSpace=wrap;rounded=0;fontSize=12;fontFamily=Helvetica;fontColor=#FFFFFF;" parent="tNCyVdp1Aul9Red6iAFf-1" vertex="1">
          <mxGeometry x="218.7822219983884" y="222.20051525616023" width="26.610294117647058" height="25.45322110715442" as="geometry" />
        </mxCell>
        <mxCell id="weasKUzhQbfyZyFGf2sW-21" value="&lt;font style=&quot;font-size: 14px;&quot;&gt;Yes&lt;/font&gt;" style="text;html=1;strokeColor=none;fillColor=none;align=center;verticalAlign=middle;whiteSpace=wrap;rounded=0;fontSize=12;fontFamily=Helvetica;fontColor=#FFFFFF;" parent="tNCyVdp1Aul9Red6iAFf-1" vertex="1">
          <mxGeometry x="383.94706688154713" y="220.13218033730266" width="41.04779411764706" height="27.51699579151829" as="geometry" />
        </mxCell>
        <mxCell id="Puos1YkfTBZv_9QDnM-f-8" value="&lt;font style=&quot;font-size: 16px;&quot;&gt;Build corresponding order from &lt;br&gt;location and data&lt;br&gt;requirement info&lt;/font&gt;" style="rounded=1;whiteSpace=wrap;html=1;strokeColor=#DB918D;fontColor=#FFFFFF;fillColor=none;strokeWidth=3;fontSize=12;" parent="tNCyVdp1Aul9Red6iAFf-1" vertex="1">
          <mxGeometry x="643.4209347300564" y="-1.636375875067313" width="135.88235294117646" height="121.07478148268048" as="geometry" />
        </mxCell>
        <mxCell id="eJLsP098SzrVyEOCUtsY-2" style="edgeStyle=orthogonalEdgeStyle;shape=connector;curved=0;rounded=1;orthogonalLoop=1;jettySize=auto;html=1;entryX=0.5;entryY=1;entryDx=0;entryDy=0;labelBackgroundColor=default;strokeColor=#DB918D;strokeWidth=3;align=center;verticalAlign=middle;fontFamily=Helvetica;fontSize=12;fontColor=#FFFFFF;endArrow=openThin;endFill=0;fillColor=#FAE5C7;exitX=0.5;exitY=1;exitDx=0;exitDy=0;" parent="tNCyVdp1Aul9Red6iAFf-1" source="eJLsP098SzrVyEOCUtsY-3" target="weasKUzhQbfyZyFGf2sW-17" edge="1">
          <mxGeometry relative="1" as="geometry">
            <Array as="points">
              <mxPoint x="543.2191780821918" y="320.4092622509424" />
              <mxPoint x="320.6575342465753" y="320.4092622509424" />
            </Array>
          </mxGeometry>
        </mxCell>
        <mxCell id="eJLsP098SzrVyEOCUtsY-5" style="edgeStyle=orthogonalEdgeStyle;shape=connector;curved=0;rounded=1;orthogonalLoop=1;jettySize=auto;html=1;labelBackgroundColor=default;strokeColor=#DB918D;strokeWidth=3;align=center;verticalAlign=middle;fontFamily=Helvetica;fontSize=12;fontColor=#FFFFFF;endArrow=openThin;endFill=0;fillColor=#FAE5C7;entryX=0;entryY=0.5;entryDx=0;entryDy=0;" parent="tNCyVdp1Aul9Red6iAFf-1" source="eJLsP098SzrVyEOCUtsY-1" target="Puos1YkfTBZv_9QDnM-f-8" edge="1">
          <mxGeometry relative="1" as="geometry" />
        </mxCell>
        <mxCell id="eJLsP098SzrVyEOCUtsY-1" value="&lt;font style=&quot;font-size: 16px;&quot;&gt;Directive for&lt;br style=&quot;&quot;&gt;&amp;nbsp;location &lt;br style=&quot;&quot;&gt;and Action?&lt;/font&gt;" style="rhombus;whiteSpace=wrap;html=1;rounded=0;strokeColor=#DB918D;strokeWidth=3;align=center;verticalAlign=middle;fontFamily=Helvetica;fontSize=12;fontColor=#FFFFFF;fillColor=none;spacingTop=0;" parent="tNCyVdp1Aul9Red6iAFf-1" vertex="1">
          <mxGeometry x="464.1095890410959" width="149.9495890410959" height="117.79617662897145" as="geometry" />
        </mxCell>
        <mxCell id="Puos1YkfTBZv_9QDnM-f-4" style="edgeStyle=orthogonalEdgeStyle;shape=connector;curved=0;rounded=1;orthogonalLoop=1;jettySize=auto;html=1;labelBackgroundColor=default;strokeColor=#DB918D;strokeWidth=3;align=center;verticalAlign=middle;fontFamily=Helvetica;fontSize=12;fontColor=#FFFFFF;endArrow=openThin;endFill=0;fillColor=#FAE5C7;exitX=1;exitY=0.5;exitDx=0;exitDy=0;" parent="tNCyVdp1Aul9Red6iAFf-1" source="weasKUzhQbfyZyFGf2sW-17" target="eJLsP098SzrVyEOCUtsY-1" edge="1">
          <mxGeometry relative="1" as="geometry">
            <Array as="points">
              <mxPoint x="427.1917808219178" y="251.75013462574043" />
              <mxPoint x="427.1917808219178" y="60.64889606892838" />
            </Array>
            <mxPoint x="471.07014705882347" y="144.46422790547103" as="targetPoint" />
          </mxGeometry>
        </mxCell>
        <mxCell id="eJLsP098SzrVyEOCUtsY-4" value="" style="edgeStyle=orthogonalEdgeStyle;shape=connector;curved=0;rounded=1;orthogonalLoop=1;jettySize=auto;html=1;labelBackgroundColor=default;strokeColor=#DB918D;strokeWidth=3;align=center;verticalAlign=middle;fontFamily=Helvetica;fontSize=12;fontColor=#FFFFFF;endArrow=openThin;endFill=0;fillColor=#FAE5C7;exitX=0.5;exitY=1;exitDx=0;exitDy=0;" parent="tNCyVdp1Aul9Red6iAFf-1" source="eJLsP098SzrVyEOCUtsY-1" target="eJLsP098SzrVyEOCUtsY-3" edge="1">
          <mxGeometry relative="1" as="geometry">
            <mxPoint x="542.3970588235294" y="196.74651990935575" as="sourcePoint" />
            <mxPoint x="320.45588235294116" y="295.8077047588216" as="targetPoint" />
          </mxGeometry>
        </mxCell>
        <mxCell id="eJLsP098SzrVyEOCUtsY-3" value="&lt;font style=&quot;font-size: 16px;&quot;&gt;Report missing directive&lt;/font&gt;" style="rounded=1;whiteSpace=wrap;html=1;strokeColor=#DB918D;fontColor=#FFFFFF;fillColor=none;strokeWidth=3;fontSize=12;" parent="tNCyVdp1Aul9Red6iAFf-1" vertex="1">
          <mxGeometry x="482.4710797743755" y="192.61897054062803" width="113.23529411764704" height="55.03399158303658" as="geometry" />
        </mxCell>
        <mxCell id="eJLsP098SzrVyEOCUtsY-7" value="&lt;font style=&quot;font-size: 16px;&quot;&gt;Add action to things tried in location for data requirement&lt;/font&gt;" style="rounded=1;whiteSpace=wrap;html=1;strokeColor=#DB918D;fontColor=#FFFFFF;fillColor=none;strokeWidth=3;fontSize=12;spacingLeft=3;spacingRight=3;" parent="tNCyVdp1Aul9Red6iAFf-1" vertex="1">
          <mxGeometry x="643.4209347300564" y="145.68620404747125" width="135.88235294117646" height="90.28326319197153" as="geometry" />
        </mxCell>
        <mxCell id="eJLsP098SzrVyEOCUtsY-8" style="edgeStyle=orthogonalEdgeStyle;shape=connector;curved=0;rounded=1;orthogonalLoop=1;jettySize=auto;html=1;labelBackgroundColor=default;strokeColor=#DB918D;strokeWidth=3;align=center;verticalAlign=middle;fontFamily=Helvetica;fontSize=12;fontColor=#FFFFFF;endArrow=openThin;endFill=0;fillColor=#FAE5C7;" parent="tNCyVdp1Aul9Red6iAFf-1" source="Puos1YkfTBZv_9QDnM-f-8" target="eJLsP098SzrVyEOCUtsY-7" edge="1">
          <mxGeometry relative="1" as="geometry" />
        </mxCell>
        <mxCell id="eJLsP098SzrVyEOCUtsY-11" style="edgeStyle=orthogonalEdgeStyle;shape=connector;curved=0;rounded=1;orthogonalLoop=1;jettySize=auto;html=1;labelBackgroundColor=default;strokeColor=#DB918D;strokeWidth=3;align=center;verticalAlign=middle;fontFamily=Helvetica;fontSize=12;fontColor=#FFFFFF;endArrow=openThin;endFill=0;fillColor=#FAE5C7;" parent="tNCyVdp1Aul9Red6iAFf-1" source="eJLsP098SzrVyEOCUtsY-9" target="weasKUzhQbfyZyFGf2sW-17" edge="1">
          <mxGeometry relative="1" as="geometry">
            <Array as="points">
              <mxPoint x="320.6575342465753" y="320.4092622509424" />
            </Array>
          </mxGeometry>
        </mxCell>
        <mxCell id="eJLsP098SzrVyEOCUtsY-9" value="&lt;font style=&quot;font-size: 16px;&quot;&gt;Send Order to &lt;br style=&quot;&quot;&gt;executor service&lt;/font&gt;" style="rounded=1;whiteSpace=wrap;html=1;strokeColor=#DB918D;fontColor=#FFFFFF;fillColor=none;strokeWidth=3;fontSize=12;" parent="tNCyVdp1Aul9Red6iAFf-1" vertex="1">
          <mxGeometry x="643.4209347300564" y="277.2337325995468" width="135.88235294117646" height="62.766267400453216" as="geometry" />
        </mxCell>
        <mxCell id="eJLsP098SzrVyEOCUtsY-10" value="" style="edgeStyle=orthogonalEdgeStyle;shape=connector;curved=0;rounded=1;orthogonalLoop=1;jettySize=auto;html=1;labelBackgroundColor=default;strokeColor=#DB918D;strokeWidth=3;align=center;verticalAlign=middle;fontFamily=Helvetica;fontSize=12;fontColor=#FFFFFF;endArrow=openThin;endFill=0;fillColor=#FAE5C7;" parent="tNCyVdp1Aul9Red6iAFf-1" source="eJLsP098SzrVyEOCUtsY-7" target="eJLsP098SzrVyEOCUtsY-9" edge="1">
          <mxGeometry relative="1" as="geometry" />
        </mxCell>
        <mxCell id="eJLsP098SzrVyEOCUtsY-15" value="&lt;font style=&quot;font-size: 14px;&quot;&gt;Yes&lt;/font&gt;" style="text;html=1;strokeColor=none;fillColor=none;align=center;verticalAlign=middle;whiteSpace=wrap;rounded=0;fontSize=12;fontFamily=Helvetica;fontColor=#FFFFFF;" parent="tNCyVdp1Aul9Red6iAFf-1" vertex="1">
          <mxGeometry x="602.3708138597904" y="30.271421879676932" width="41.04779411764706" height="27.51699579151829" as="geometry" />
        </mxCell>
        <mxCell id="eJLsP098SzrVyEOCUtsY-16" value="&lt;font style=&quot;font-size: 14px;&quot;&gt;No&lt;/font&gt;" style="text;html=1;strokeColor=none;fillColor=none;align=center;verticalAlign=middle;whiteSpace=wrap;rounded=0;fontSize=12;fontFamily=Helvetica;fontColor=#FFFFFF;" parent="tNCyVdp1Aul9Red6iAFf-1" vertex="1">
          <mxGeometry x="502.7647058823529" y="131.91191018105314" width="26.610294117647058" height="25.45322110715442" as="geometry" />
        </mxCell>
      </root>
    </mxGraphModel>
  </diagram>
</mxfile>
